<svg id="Layer_1" data-name="Layer 1" xmlns="http://www.w3.org/2000/svg" viewBox="0 0 291.32 291.32"><defs><style>.cls-1{fill:#fff;}</style></defs><title>instagram blanco</title><path class="cls-1" d="M209.63,127.42H187.14a52.24,52.24,0,0,1,3.3,18.25,44.82,44.82,0,1,1-89.63,0,52.25,52.25,0,0,1,3.31-18.25H81.36V194a15.72,15.72,0,0,0,15.71,15.7h96.87A15.72,15.72,0,0,0,209.65,194h0Z"/><polygon class="cls-1" points="209.5 109.23 209.5 82.03 205.91 82.03 182 82.12 182.09 109.32 209.5 109.23"/><path class="cls-1" d="M145.66,173.08a27.46,27.46,0,0,0,27.42-27.41c0-6.09-4.69-27.43-27.42-27.43s-27.43,21.34-27.42,27.43A27.45,27.45,0,0,0,145.66,173.08Z"/><path class="cls-1" d="M145.66,0A145.66,145.66,0,1,0,291.32,145.66,145.66,145.66,0,0,0,145.66,0Zm82,195.94a31.7,31.7,0,0,1-31.67,31.67H95.38a31.7,31.7,0,0,1-31.67-31.67V95.38A31.7,31.7,0,0,1,95.38,63.71H195.93a31.71,31.71,0,0,1,31.68,31.67Z"/></svg>