<svg id="Capa_1" data-name="Capa 1" xmlns="http://www.w3.org/2000/svg" viewBox="0 0 462 115.44"><defs><style>.cls-1{fill:#fff;}</style></defs><title>Logo monat blanco</title><path id="_Trazado_compuesto_" data-name="&lt;Trazado compuesto&gt;" class="cls-1" d="M3.54,59V0L43.89,47.19,82,0V59q0,16.27.54,20.59t2.41,4.77v.59H72.56v-.59q1.88-.46,2.42-4.77T75.51,59V14.75l-33,40.7L7.67,14.87V59q0,10.86.41,16.4T9.2,82.47a3.12,3.12,0,0,0,2,1.88v.59H0v-.59a3.16,3.16,0,0,0,2-1.88q.71-1.53,1.12-7.08T3.54,59ZM112.73,74.62q-12.45-12.68-12.45-31t12.45-31Q125.18,0,143.93,0t31.21,12.68q12.45,12.69,12.45,31t-12.45,31Q162.69,87.31,143.93,87.3T112.73,74.62ZM141,4.72q-14.74,0-24.48,9.85t-9.73,25.54Q106.77,59,119,70.79t27.84,11.79q14.75,0,24.48-9.85t9.74-25.54q0-18.87-12.27-30.67T141,4.72ZM212.36,59q0,10.86.41,16.4t1.12,7.08a3.12,3.12,0,0,0,2,1.88v.59H204.69v-.59a3.14,3.14,0,0,0,2-1.88q.7-1.53,1.12-7.08t.41-16.4V0l71.38,73.85V28.31q0-10.85-.42-16.39t-1.12-7.08a3.17,3.17,0,0,0-2-1.89V2.36h11.21V3a3.16,3.16,0,0,0-2,1.89c-.47,1-.85,3.38-1.12,7.08s-.41,9.16-.41,16.39v59L212.36,13.45ZM344.85,0l31.5,62.29c.55,1,1.33,2.68,2.36,5s1.94,4.24,2.77,5.9,1.75,3.4,2.77,5.25a19,19,0,0,0,3,4.24,4.75,4.75,0,0,0,2.77,1.6v.7H376.82v-.47q3.78-.7-4.84-17a11.62,11.62,0,0,0-.82-1.29,19.91,19.91,0,0,0-1-1.89L359.83,44.24H327.5L317.12,64.3q-2.24,4.36-3.6,7.31a40.65,40.65,0,0,0-2.18,5.9,8.48,8.48,0,0,0-.29,4.66,3.11,3.11,0,0,0,2.42,2.18v.59h-15v-.7a6.29,6.29,0,0,0,3.19-1.77A21.06,21.06,0,0,0,305.09,78c1.18-1.92,2.14-3.6,2.89-5s1.75-3.4,3-6,2-4.15,2.36-4.78Zm-1.18,13-14,27.13h28.08Zm86.48,72H417.76v-.59c1.26-.31,2.06-1.9,2.42-4.77s.53-9.74.53-20.59V6.49H403.48q-8.49,0-12.33,1.41c-2.55.95-3.91,3-4.07,6.26H385.9V2.36H462v11.8h-1.18c-.16-3.23-1.51-5.31-4.07-6.26s-6.67-1.41-12.33-1.41H427.2V59q0,16.27.53,20.59t2.42,4.77Z"/><path class="cls-1" d="M66.19,101c.43,0,.85,0,1.25,0a7.47,7.47,0,0,1,1.41.3,5.48,5.48,0,0,1,1.38.61,3,3,0,0,1,1,1.08,3.2,3.2,0,0,1,.41,1.66,3.11,3.11,0,0,1-1.23,2.63,5.45,5.45,0,0,1-3.38.94,4.74,4.74,0,0,1-2.28-.55v5.47l1.14,1.6v.17h-4v-.17l1.14-1.6V102.71l-1.26-1.57V101Zm.63,6.7a4.59,4.59,0,0,0,.73-.06,3.56,3.56,0,0,0,.81-.28,2.69,2.69,0,0,0,.78-.53,2.62,2.62,0,0,0,.56-.9,3.45,3.45,0,0,0,.23-1.32q0-3.12-3.7-3.12h-1.5v5.64A4,4,0,0,0,66.82,107.67Z"/><path class="cls-1" d="M86.67,113.16l1.07,1.6v.17H83.9v-.17l.93-1.6-1.35-3.26h-4.9l-1.29,3.26,1.19,1.6v.17H75.14v-.17l1.25-1.6,4.16-10.39L80,101.36l1.75-.51Zm-7.85-3.89h4.41L81,103.8Z"/><path class="cls-1" d="M99.63,108.34l4.5,7.1h-.3l-2.26-.93-4.39-6.78h-.59v5.43l1.14,1.6v.17h-4v-.17l1.14-1.6V102.71l-1.25-1.57V101h4a11.4,11.4,0,0,1,1.18,0,7.31,7.31,0,0,1,1.34.28,4.44,4.44,0,0,1,1.3.57,2.87,2.87,0,0,1,.94,1,3,3,0,0,1,.38,1.52,2.83,2.83,0,0,1-1.31,2.45,4.88,4.88,0,0,1-1.26.54,7,7,0,0,1-1.23.26c-.34,0-.68.07-1,.08Zm-3-6.88v5.78h1.25q3.27,0,3.27-2.93t-3.55-2.85Z"/><path class="cls-1" d="M120.72,113.16l1.06,1.6v.17h-3.84v-.17l.94-1.6-1.35-3.26h-4.91l-1.29,3.26,1.2,1.6v.17h-3.34v-.17l1.25-1.6,4.16-10.39-.57-1.41,1.75-.51Zm-7.85-3.89h4.41L115,103.8Z"/><path class="cls-1" d="M132.27,101a7.25,7.25,0,0,1,5.42,1.91,7.37,7.37,0,0,1,1.88,5.4,9,9,0,0,1-.53,3.19,5.49,5.49,0,0,1-1.38,2.18,6.17,6.17,0,0,1-1.86,1.17,5.69,5.69,0,0,1-2.05.38,3.19,3.19,0,0,1-3-1.35v1.08H128v-.17l1.1-1.6V102.71l-1.56-1.55V101Zm1.18,13.45a3.78,3.78,0,0,0,3.07-1.43q1.17-1.42,1.17-4.71a8.08,8.08,0,0,0-1.42-4.88,4.67,4.67,0,0,0-4-1.94h-1.48v11.59a2.67,2.67,0,0,0,1.11,1A3.52,3.52,0,0,0,133.45,114.42Z"/><path class="cls-1" d="M146.06,114.93v-.19l1.07-1.58V102.68l-.74-1.52V101h3.17v.19l-.72,1.52v10.48l1,1.58v.19Z"/><path class="cls-1" d="M161.05,115.2a4.1,4.1,0,0,1-2.79-.86l-1.35.59h-.22v-3.72h.55a5,5,0,0,0,.46,1.4,2.81,2.81,0,0,0,.73,1,5.16,5.16,0,0,0,.81.56,2.74,2.74,0,0,0,.84.31c.29,0,.51.09.64.1l.41,0a4.18,4.18,0,0,0,2.4-.65,2.12,2.12,0,0,0,1-1.89,2.66,2.66,0,0,0-.41-1.47,3.2,3.2,0,0,0-1.09-1,12.58,12.58,0,0,0-1.47-.73c-.54-.22-1.08-.45-1.62-.7a9.61,9.61,0,0,1-1.49-.83,3.46,3.46,0,0,1-1.08-1.22,4,4,0,0,1-.14-3.25,3,3,0,0,1,.7-1,3.93,3.93,0,0,1,1-.63,4.65,4.65,0,0,1,1.12-.35,6.16,6.16,0,0,1,2.21,0,7.64,7.64,0,0,1,1.22.32,3.58,3.58,0,0,1,1.23.74,3.68,3.68,0,0,1,.9,1.25l-1.81,1.26h-.21a2.21,2.21,0,0,0-.4-2.2,2.66,2.66,0,0,0-2.14-.92,2.82,2.82,0,0,0-1.9.64,2.06,2.06,0,0,0-.76,1.68,2.16,2.16,0,0,0,.79,1.7,6.82,6.82,0,0,0,1.9,1.15q1.13.45,2.25,1a5.56,5.56,0,0,1,1.91,1.41A3.31,3.31,0,0,1,166,111a3.79,3.79,0,0,1-1.36,3.1A5.55,5.55,0,0,1,161.05,115.2Z"/><path class="cls-1" d="M181.46,112.14l1.71,1.84a3.77,3.77,0,0,1-1.54.81,10.49,10.49,0,0,1-2.43.14h-6.78v-.17l1.19-1.58V102.73l-1.46-1.59V101h9.46l.69,3H182l-2.37-2.56h-4.3v5.45h3.14l1.37-1H180v2.89h-.19l-1.37-1.31h-3.14v6.92h3.29a2.56,2.56,0,0,0,1.92-.72A3.6,3.6,0,0,0,181.46,112.14Z"/><path class="cls-1" d="M204,101a7.23,7.23,0,0,1,5.41,1.91,7.37,7.37,0,0,1,1.88,5.4,9,9,0,0,1-.52,3.19,5.5,5.5,0,0,1-1.39,2.18,6,6,0,0,1-1.85,1.17,5.73,5.73,0,0,1-2,.38,3.18,3.18,0,0,1-3-1.35v1.08h-2.76v-.17l1.1-1.6V102.71l-1.55-1.55V101Zm1.17,13.45a3.78,3.78,0,0,0,3.07-1.43q1.17-1.42,1.17-4.71A8.08,8.08,0,0,0,208,103.4a4.68,4.68,0,0,0-4-1.94h-1.49v11.59a2.7,2.7,0,0,0,1.12,1A3.48,3.48,0,0,0,205.15,114.42Z"/><path class="cls-1" d="M226.66,112.14l1.71,1.84a3.77,3.77,0,0,1-1.54.81,10.49,10.49,0,0,1-2.43.14h-6.78v-.17l1.19-1.58V102.73l-1.46-1.59V101h9.46l.69,3h-.31l-2.37-2.56h-4.3v5.45h3.14l1.37-1h.19v2.89H225l-1.37-1.31h-3.14v6.92h3.29a2.56,2.56,0,0,0,1.92-.72A3.6,3.6,0,0,0,226.66,112.14Z"/><path class="cls-1" d="M239.32,115.2l-4.81-12.51-1.08-1.55V101h4v.17l-1,1.55,3.76,9.71,3.44-9.71-1.07-1.55V101h2.93v.17l-1.08,1.55-4.52,12.51Z"/><path class="cls-1" d="M260.39,112.14,262.1,114a3.77,3.77,0,0,1-1.54.81,10.49,10.49,0,0,1-2.43.14h-6.79v-.17l1.2-1.58V102.73l-1.46-1.59V101h9.46l.68,3h-.3l-2.38-2.56h-4.29v5.45h3.13l1.37-1h.19v2.89h-.19l-1.37-1.31h-3.13v6.92h3.29a2.56,2.56,0,0,0,1.92-.72A3.8,3.8,0,0,0,260.39,112.14Z"/><path class="cls-1" d="M268.46,114.93v-.17l1-1.58v-10.5l-1.07-1.5V101h3.84v.21l-1.06,1.5v11.76h2.58a2.55,2.55,0,0,0,1.94-.77,3.1,3.1,0,0,0,.86-1.59l1.71,1.27a1.75,1.75,0,0,1-.44.78,2.86,2.86,0,0,1-1.29.55,11.13,11.13,0,0,1-2.66.25Z"/><path class="cls-1" d="M290.63,115.2a7,7,0,0,1-7.27-7.24,7.16,7.16,0,0,1,2-5.22,7.41,7.41,0,1,1,5.27,12.46Zm.31-.5a4.58,4.58,0,0,0,3.66-1.6A6.2,6.2,0,0,0,296,109a8.85,8.85,0,0,0-1.71-5.47,4.94,4.94,0,0,0-4-2.27,4.43,4.43,0,0,0-3.64,1.64A6.33,6.33,0,0,0,285.3,107a8.94,8.94,0,0,0,1.66,5.42A4.82,4.82,0,0,0,290.94,114.7Z"/><path class="cls-1" d="M308.17,101c.43,0,.85,0,1.25,0a7.47,7.47,0,0,1,1.41.3,5.48,5.48,0,0,1,1.38.61,3.07,3.07,0,0,1,1,1.08,3.29,3.29,0,0,1,.41,1.66,3.12,3.12,0,0,1-1.24,2.63,5.43,5.43,0,0,1-3.38.94,4.74,4.74,0,0,1-2.28-.55v5.47l1.14,1.6v.17h-4v-.17l1.14-1.6V102.71l-1.26-1.57V101Zm.63,6.7a4.59,4.59,0,0,0,.73-.06,3.62,3.62,0,0,0,.82-.28,3,3,0,0,0,.78-.53,2.78,2.78,0,0,0,.56-.9,3.66,3.66,0,0,0,.22-1.32q0-3.12-3.7-3.12h-1.5v5.64A4,4,0,0,0,308.8,107.67Z"/><path class="cls-1" d="M325.8,115.06l-3.36-10.77-1.52,8.87,1.18,1.6v.17H319v-.17l1.18-1.6,1.77-10.33-.53-1.52,1.71-.44,3.13,10.41.23.76,2.37-9.33-.3-1.42,1.75-.42,2.66,12.29,1.08,1.6v.17H330.1v-.17l1-1.6-2-9.06-2.87,11Z"/><path class="cls-1" d="M349.48,112.14l1.71,1.84a3.77,3.77,0,0,1-1.54.81,10.49,10.49,0,0,1-2.43.14h-6.79v-.17l1.2-1.58V102.73l-1.46-1.59V101h9.46l.68,3H350l-2.38-2.56h-4.29v5.45h3.13l1.37-1H348v2.89h-.19l-1.37-1.31h-3.13v6.92h3.29a2.56,2.56,0,0,0,1.92-.72A3.8,3.8,0,0,0,349.48,112.14Z"/><path class="cls-1" d="M367.6,115.05l-8.24-11.33v9.44l1.17,1.6v.17h-3.19v-.17l1.18-1.6V102.73l-1.18-1.59V101h2.15l8,10.75v-9l-1.14-1.55V101h3.12v.17l-1.14,1.55v12.36Z"/><path class="cls-1" d="M378.93,114.93v-.17l1.17-1.6v-11.7h-2.26L375.47,104h-.31l.61-3h10.38l.6,3h-.3l-2.37-2.56h-2.27v11.7l1.18,1.6v.17Z"/><path class="cls-1" d="M397.2,115.2a4.1,4.1,0,0,1-2.79-.86l-1.35.59h-.23v-3.72h.55a5.35,5.35,0,0,0,.47,1.4,2.81,2.81,0,0,0,.73,1,5.16,5.16,0,0,0,.81.56,2.74,2.74,0,0,0,.84.31c.29,0,.51.09.64.1l.41,0a4.12,4.12,0,0,0,2.39-.65,2.11,2.11,0,0,0,1-1.89,2.59,2.59,0,0,0-.42-1.47,3.08,3.08,0,0,0-1.08-1,12.58,12.58,0,0,0-1.47-.73c-.54-.22-1.08-.45-1.62-.7a9.61,9.61,0,0,1-1.49-.83,3.46,3.46,0,0,1-1.08-1.22,3.68,3.68,0,0,1-.42-1.8,3.51,3.51,0,0,1,.28-1.45,3,3,0,0,1,.7-1,3.93,3.93,0,0,1,1-.63,4.65,4.65,0,0,1,1.12-.35,6.16,6.16,0,0,1,2.21,0,7.93,7.93,0,0,1,1.22.32,3.58,3.58,0,0,1,1.23.74,3.68,3.68,0,0,1,.9,1.25l-1.81,1.26h-.21a2.21,2.21,0,0,0-.4-2.2,2.66,2.66,0,0,0-2.14-.92,2.82,2.82,0,0,0-1.9.64,2.06,2.06,0,0,0-.76,1.68,2.19,2.19,0,0,0,.78,1.7,7,7,0,0,0,1.91,1.15q1.13.45,2.25,1a5.56,5.56,0,0,1,1.91,1.41,3.3,3.3,0,0,1,.78,2.21,3.79,3.79,0,0,1-1.35,3.1A5.55,5.55,0,0,1,397.2,115.2Z"/></svg>